<svg width="88" height="32" viewBox="0 0 88 32" fill="none" xmlns="http://www.w3.org/2000/svg">
<g clip-path="url(#clip0_27812_11)">
<path d="M28.5 0H3.5C1.567 0 0 1.567 0 3.5V28.5C0 30.433 1.567 32 3.5 32H28.5C30.433 32 32 30.433 32 28.5V3.5C32 1.567 30.433 0 28.5 0Z" fill="#FF7629"/>
<path d="M23.2967 11.7748V20.053C23.2967 22.9055 23.088 24.2735 22.462 25.4561C21.8821 26.5926 21.1168 27.3114 19.5401 28.0999L16.2238 26.523C17.8008 25.781 18.5661 25.1318 19.053 24.1343C19.5632 23.1141 19.7257 21.9314 19.7257 18.8241V11.7748H23.2967ZM17.6156 6.25977V22.7896C15.7837 23.1374 14.4387 23.2765 12.9778 23.2765C8.6182 23.2765 6.3457 21.3056 6.3457 17.5256C6.3457 13.8849 8.75745 11.5198 12.4907 11.5198C13.0705 11.5198 13.5111 11.566 14.0445 11.7051V6.26002H17.6157L17.6156 6.25977ZM12.8387 14.395C11.03 14.395 9.98633 15.5081 9.98633 17.4559C9.98633 19.3576 10.9836 20.401 12.8156 20.401C13.2096 20.401 13.5343 20.3779 14.0445 20.3085V14.5804C13.6271 14.4414 13.2793 14.395 12.8387 14.395ZM23.2967 6.27877V9.94277H19.7257V6.27889L23.2967 6.27877Z" fill="#FFFFFD"/>
</g>
<path d="M43.38 19.62C43.82 19.62 44.18 19.5867 44.46 19.52C44.7533 19.44 44.9867 19.34 45.16 19.22C45.3333 19.0867 45.4533 18.9333 45.52 18.76C45.5867 18.5867 45.62 18.3933 45.62 18.18C45.62 17.7267 45.4067 17.3533 44.98 17.06C44.5533 16.7533 43.82 16.4267 42.78 16.08C42.3267 15.92 41.8733 15.74 41.42 15.54C40.9667 15.3267 40.56 15.0667 40.2 14.76C39.84 14.44 39.5467 14.06 39.32 13.62C39.0933 13.1667 38.98 12.62 38.98 11.98C38.98 11.34 39.1 10.7667 39.34 10.26C39.58 9.74 39.92 9.3 40.36 8.94C40.8 8.58 41.3333 8.30667 41.96 8.12C42.5867 7.92 43.2933 7.82 44.08 7.82C45.0133 7.82 45.82 7.92 46.5 8.12C47.18 8.32 47.74 8.54 48.18 8.78L47.28 11.24C46.8933 11.04 46.46 10.8667 45.98 10.72C45.5133 10.56 44.9467 10.48 44.28 10.48C43.5333 10.48 42.9933 10.5867 42.66 10.8C42.34 11 42.18 11.3133 42.18 11.74C42.18 11.9933 42.24 12.2067 42.36 12.38C42.48 12.5533 42.6467 12.7133 42.86 12.86C43.0867 12.9933 43.34 13.12 43.62 13.24C43.9133 13.3467 44.2333 13.46 44.58 13.58C45.3 13.8467 45.9267 14.1133 46.46 14.38C46.9933 14.6333 47.4333 14.9333 47.78 15.28C48.14 15.6267 48.4067 16.0333 48.58 16.5C48.7533 16.9667 48.84 17.5333 48.84 18.2C48.84 19.4933 48.3867 20.5 47.48 21.22C46.5733 21.9267 45.2067 22.28 43.38 22.28C42.7667 22.28 42.2133 22.24 41.72 22.16C41.2267 22.0933 40.7867 22.0067 40.4 21.9C40.0267 21.7933 39.7 21.68 39.42 21.56C39.1533 21.44 38.9267 21.3267 38.74 21.22L39.62 18.74C40.0333 18.9667 40.54 19.1733 41.14 19.36C41.7533 19.5333 42.5 19.62 43.38 19.62ZM61.13 8.14V10.8H56.95V22H53.83V10.8H49.65V8.14H61.13ZM70.7745 22C70.6279 21.52 70.4612 21.0267 70.2745 20.52C70.1012 20.0133 69.9279 19.5067 69.7545 19H64.3545C64.1812 19.5067 64.0012 20.0133 63.8145 20.52C63.6412 21.0267 63.4812 21.52 63.3345 22H60.0945C60.6145 20.5067 61.1079 19.1267 61.5745 17.86C62.0412 16.5933 62.4945 15.4 62.9345 14.28C63.3879 13.16 63.8279 12.1 64.2545 11.1C64.6945 10.0867 65.1479 9.1 65.6145 8.14H68.5945C69.0479 9.1 69.4945 10.0867 69.9345 11.1C70.3745 12.1 70.8145 13.16 71.2545 14.28C71.7079 15.4 72.1679 16.5933 72.6345 17.86C73.1012 19.1267 73.5945 20.5067 74.1145 22H70.7745ZM67.0345 11.28C66.9679 11.48 66.8679 11.7533 66.7345 12.1C66.6012 12.4467 66.4479 12.8467 66.2745 13.3C66.1012 13.7533 65.9079 14.2533 65.6945 14.8C65.4945 15.3467 65.2879 15.92 65.0745 16.52H69.0145C68.8012 15.92 68.5945 15.3467 68.3945 14.8C68.1945 14.2533 68.0012 13.7533 67.8145 13.3C67.6412 12.8467 67.4879 12.4467 67.3545 12.1C67.2212 11.7533 67.1145 11.48 67.0345 11.28ZM79.9686 7.98C82.0486 7.98 83.6419 8.35333 84.7486 9.1C85.8553 9.83333 86.4086 10.98 86.4086 12.54C86.4086 13.5133 86.1819 14.3067 85.7286 14.92C85.2886 15.52 84.6486 15.9933 83.8086 16.34C84.0886 16.6867 84.3819 17.0867 84.6886 17.54C84.9953 17.98 85.2953 18.4467 85.5886 18.94C85.8953 19.42 86.1886 19.9267 86.4686 20.46C86.7486 20.98 87.0086 21.4933 87.2486 22H83.7486C83.4953 21.5467 83.2353 21.0867 82.9686 20.62C82.7153 20.1533 82.4486 19.7 82.1686 19.26C81.9019 18.82 81.6353 18.4067 81.3686 18.02C81.1019 17.62 80.8353 17.26 80.5686 16.94H79.0286V22H75.9086V8.34C76.5886 8.20667 77.2886 8.11333 78.0086 8.06C78.7419 8.00667 79.3953 7.98 79.9686 7.98ZM80.1486 10.64C79.9219 10.64 79.7153 10.6467 79.5286 10.66C79.3553 10.6733 79.1886 10.6867 79.0286 10.7V14.46H79.9086C81.0819 14.46 81.9219 14.3133 82.4286 14.02C82.9353 13.7267 83.1886 13.2267 83.1886 12.52C83.1886 11.84 82.9286 11.36 82.4086 11.08C81.9019 10.7867 81.1486 10.64 80.1486 10.64Z" fill="white"/>
<defs>
<clipPath id="clip0_27812_11">
<rect width="32" height="32" fill="white"/>
</clipPath>
</defs>
</svg>
